<svg xmlns="http://www.w3.org/2000/svg" xmlns:xlink="http://www.w3.org/1999/xlink" width="500" zoomAndPan="magnify" viewBox="0 0 375 187.499995" height="250" preserveAspectRatio="xMidYMid meet" version="1.0"><defs><g/><clipPath id="ab59cf2d6b"><path d="M 12 29 L 136 29 L 136 154 L 12 154 Z M 12 29 " clip-rule="nonzero"/></clipPath><clipPath id="c922b24c89"><path d="M -8.199219 62.804688 L 103.113281 4.109375 L 161.804688 115.417969 L 50.496094 174.113281 Z M -8.199219 62.804688 " clip-rule="nonzero"/></clipPath><clipPath id="5d20f63960"><path d="M -8.199219 62.804688 L 103.113281 4.109375 L 161.804688 115.417969 L 50.496094 174.113281 Z M -8.199219 62.804688 " clip-rule="nonzero"/></clipPath><clipPath id="3c8e7d3d44"><path d="M 12 29 L 133 29 L 133 149 L 12 149 Z M 12 29 " clip-rule="nonzero"/></clipPath><clipPath id="4bff41e659"><path d="M -8.199219 62.804688 L 103.113281 4.109375 L 161.804688 115.417969 L 50.496094 174.113281 Z M -8.199219 62.804688 " clip-rule="nonzero"/></clipPath><clipPath id="5f19869bc8"><path d="M -8.199219 62.804688 L 103.113281 4.109375 L 161.804688 115.417969 L 50.496094 174.113281 Z M -8.199219 62.804688 " clip-rule="nonzero"/></clipPath><clipPath id="f16c200ad3"><path d="M 89 96 L 106 96 L 106 140 L 89 140 Z M 89 96 " clip-rule="nonzero"/></clipPath><clipPath id="53c6e0b6ff"><path d="M -8.199219 62.804688 L 103.113281 4.109375 L 161.804688 115.417969 L 50.496094 174.113281 Z M -8.199219 62.804688 " clip-rule="nonzero"/></clipPath><clipPath id="04e500db3a"><path d="M -8.199219 62.804688 L 103.113281 4.109375 L 161.804688 115.417969 L 50.496094 174.113281 Z M -8.199219 62.804688 " clip-rule="nonzero"/></clipPath><clipPath id="fc6a5e1005"><path d="M 107 24 L 149 24 L 149 66 L 107 66 Z M 107 24 " clip-rule="nonzero"/></clipPath><clipPath id="40c78a1609"><path d="M 105.398438 27.953125 L 146.484375 21.558594 L 152.542969 60.484375 L 111.457031 66.878906 Z M 105.398438 27.953125 " clip-rule="nonzero"/></clipPath><clipPath id="fabb826901"><path d="M 105.398438 27.953125 L 146.484375 21.558594 L 152.542969 60.484375 L 111.457031 66.878906 Z M 105.398438 27.953125 " clip-rule="nonzero"/></clipPath><clipPath id="55dc3510de"><path d="M 0.5 39 L 159 39 L 159 187 L 0.5 187 Z M 0.5 39 " clip-rule="nonzero"/></clipPath><clipPath id="40ded7d351"><path d="M 121 31 L 301 31 L 301 187 L 121 187 Z M 121 31 " clip-rule="nonzero"/></clipPath><clipPath id="f24fc8b04b"><path d="M 252 26 L 374.5 26 L 374.5 187 L 252 187 Z M 252 26 " clip-rule="nonzero"/></clipPath><clipPath id="2068cc6c87"><path d="M 144 60 L 178 60 L 178 93 L 144 93 Z M 144 60 " clip-rule="nonzero"/></clipPath><clipPath id="ff29a2ef05"><path d="M 142.382812 62.574219 L 175.902344 57.355469 L 180.78125 88.710938 L 147.265625 93.929688 Z M 142.382812 62.574219 " clip-rule="nonzero"/></clipPath><clipPath id="1039effef5"><path d="M 142.382812 62.574219 L 175.902344 57.355469 L 180.78125 88.710938 L 147.265625 93.929688 Z M 142.382812 62.574219 " clip-rule="nonzero"/></clipPath><clipPath id="a2a8fe3f91"><path d="M 49 48 L 189 48 L 189 187 L 49 187 Z M 49 48 " clip-rule="nonzero"/></clipPath><clipPath id="9857d0a7ac"><path d="M 90 47 L 226 47 L 226 187 L 90 187 Z M 90 47 " clip-rule="nonzero"/></clipPath></defs><g clip-path="url(#ab59cf2d6b)"><g clip-path="url(#c922b24c89)"><g clip-path="url(#5d20f63960)"><path fill="#ff1919" d="M 135.039062 73.535156 L 120.285156 125.351562 C 117.484375 134.398438 111.207031 141.960938 102.835938 146.375 L 96.621094 149.652344 C 80.632812 158.082031 60.839844 151.957031 52.414062 135.972656 C 48.351562 128.269531 42.335938 121.773438 34.964844 117.132812 L 16.128906 105.273438 C 13.246094 103.457031 11.914062 100.070312 12.601562 96.894531 C 13.742188 91.554688 19.882812 88.890625 24.582031 91.847656 C 51.996094 109.109375 20.25 89.117188 51.40625 108.738281 C 18.113281 72.785156 18.808594 73.988281 18.007812 71.507812 C 17.886719 71.28125 17.574219 69.996094 17.554688 68.996094 C 17.285156 60.652344 27.464844 56.617188 33.019531 62.613281 C 34.753906 64.488281 62.046875 93.957031 63.71875 95.765625 C 38.507812 47.953125 39.746094 50.386719 39.457031 49.601562 C 37.84375 45.214844 39.953125 40.546875 43.257812 38.804688 C 47.710938 36.171875 53.355469 37.84375 55.710938 42.3125 L 80.222656 88.800781 C 69.148438 35.808594 69.753906 39.613281 69.945312 37.609375 C 70.28125 33.273438 74.207031 29.460938 79.003906 29.582031 C 82.71875 29.507812 86.570312 32.316406 87.527344 36.527344 L 98.652344 85.480469 L 103.570312 94.808594 C 105.21875 97.933594 109.820312 97.507812 110.867188 94.132812 C 115 76.25 114.613281 77.816406 114.871094 77.074219 C 117.679688 69.089844 124.753906 64.40625 127.871094 64.335938 C 132.660156 63.957031 136.585938 68.535156 135.039062 73.535156 Z M 135.039062 73.535156 " fill-opacity="1" fill-rule="nonzero"/></g></g></g><g clip-path="url(#3c8e7d3d44)"><g clip-path="url(#4bff41e659)"><g clip-path="url(#5f19869bc8)"><path fill="#ff1919" d="M 132.96875 66.027344 L 115.933594 124.929688 C 113.394531 131.582031 108.9375 137.3125 103.148438 141.390625 C 84.902344 154.265625 62.886719 147.328125 54.070312 130.613281 C 50.007812 122.910156 43.992188 116.414062 36.625 111.773438 C 11.433594 96.191406 12.902344 97.109375 12.601562 96.894531 C 13.238281 93.917969 15.550781 91.496094 18.652344 90.8125 C 20.394531 90.425781 21.632812 90.664062 23.140625 91.128906 C 37.175781 99.679688 51.429688 108.726562 51.40625 108.738281 C 53.289062 107.746094 53.71875 105.242188 52.273438 103.679688 C 21.1875 70.113281 22.960938 72.28125 22.140625 70.558594 C 20.902344 68.054688 20.957031 64.667969 22.585938 62.050781 C 23.269531 60.953125 24.207031 60.070312 24.296875 60.023438 C 27.351562 59.253906 30.726562 60.136719 33.019531 62.613281 C 36.082031 65.917969 60.410156 92.191406 63.71875 95.765625 C 37.613281 46.253906 39.679688 50.304688 39.3125 49.175781 C 38.898438 47.878906 38.808594 46.5 38.957031 45.398438 C 39.113281 44.050781 39.648438 42.847656 39.671875 42.835938 C 42.84375 35.886719 52.324219 35.890625 55.710938 42.3125 L 80.222656 88.800781 C 69.476562 37.390625 70.03125 40.101562 69.984375 39.730469 C 69.046875 33.417969 75.199219 27.789062 81.847656 30.109375 C 82.28125 30.273438 81.089844 25.734375 95.492188 87.988281 L 100.40625 97.316406 C 101.824219 100 106.183594 101.011719 108.929688 97.839844 C 110.777344 95.710938 111.09375 93.152344 111.789062 90.148438 C 114.910156 76.644531 114.527344 78.242188 114.777344 77.363281 C 115.917969 73.875 118.039062 70.515625 121.101562 67.867188 C 122.394531 66.757812 124.558594 65.234375 126.097656 64.703125 C 128.183594 63.984375 130.390625 64.308594 132.113281 65.398438 C 132.582031 65.683594 132.945312 66.011719 132.96875 66.027344 Z M 132.96875 66.027344 " fill-opacity="1" fill-rule="nonzero"/></g></g></g><g clip-path="url(#f16c200ad3)"><g clip-path="url(#53c6e0b6ff)"><g clip-path="url(#04e500db3a)"><path fill="#ff1919" d="M 95.386719 138.8125 C 94.417969 139.324219 93.21875 138.953125 92.707031 137.984375 C 85.320312 123.972656 89.472656 106.496094 102.363281 97.335938 C 103.261719 96.703125 104.496094 96.914062 105.128906 97.804688 C 105.765625 98.699219 105.554688 99.9375 104.660156 100.570312 C 93.382812 108.585938 89.75 123.875 96.214844 136.132812 C 96.726562 137.101562 96.355469 138.300781 95.386719 138.8125 Z M 95.386719 138.8125 " fill-opacity="1" fill-rule="nonzero"/></g></g></g><g clip-path="url(#fc6a5e1005)"><g clip-path="url(#40c78a1609)"><g clip-path="url(#fabb826901)"><path fill="#ff1919" d="M 142.53125 61.464844 L 132.324219 58.175781 C 132 58.070312 131.675781 58.050781 131.339844 58.105469 C 131.007812 58.164062 130.707031 58.296875 130.441406 58.503906 L 121.945312 65.046875 C 121.632812 65.285156 121.285156 65.421875 120.894531 65.460938 C 120.503906 65.5 120.136719 65.433594 119.785156 65.261719 C 119.433594 65.089844 119.152344 64.839844 118.945312 64.507812 C 118.738281 64.175781 118.636719 63.8125 118.632812 63.421875 L 118.609375 52.699219 C 118.609375 52.359375 118.53125 52.039062 118.371094 51.742188 C 118.214844 51.441406 117.996094 51.199219 117.714844 51.007812 L 108.867188 44.949219 C 108.542969 44.730469 108.304688 44.441406 108.148438 44.082031 C 107.988281 43.722656 107.9375 43.351562 107.992188 42.964844 C 108.050781 42.578125 108.203125 42.234375 108.453125 41.933594 C 108.707031 41.632812 109.015625 41.421875 109.386719 41.300781 L 119.578125 37.964844 C 119.898438 37.859375 120.179688 37.683594 120.414062 37.441406 C 120.648438 37.199219 120.816406 36.917969 120.910156 36.59375 L 123.9375 26.304688 C 124.050781 25.929688 124.25 25.609375 124.542969 25.351562 C 124.835938 25.089844 125.171875 24.925781 125.558594 24.859375 C 125.945312 24.792969 126.316406 24.832031 126.679688 24.976562 C 127.042969 25.125 127.339844 25.355469 127.570312 25.671875 L 133.894531 34.332031 C 134.09375 34.605469 134.34375 34.816406 134.648438 34.964844 C 134.953125 35.113281 135.273438 35.183594 135.609375 35.175781 L 146.328125 34.875 C 146.722656 34.863281 147.085938 34.957031 147.421875 35.15625 C 147.761719 35.351562 148.019531 35.625 148.203125 35.96875 C 148.386719 36.316406 148.464844 36.683594 148.4375 37.074219 C 148.410156 37.464844 148.28125 37.816406 148.054688 38.132812 L 141.769531 46.824219 C 141.574219 47.097656 141.449219 47.402344 141.402344 47.738281 C 141.355469 48.074219 141.386719 48.398438 141.5 48.71875 L 145.097656 58.820312 C 145.226562 59.1875 145.25 59.5625 145.167969 59.945312 C 145.085938 60.328125 144.90625 60.660156 144.636719 60.941406 C 144.363281 61.222656 144.039062 61.410156 143.65625 61.503906 C 143.277344 61.597656 142.902344 61.585938 142.53125 61.464844 Z M 142.53125 61.464844 " fill-opacity="1" fill-rule="nonzero"/></g></g></g><g clip-path="url(#55dc3510de)"><path stroke-linecap="butt" transform="matrix(0.830126, -0.110307, 0.110307, 0.830126, 52.79507, 82.259827)" fill="none" stroke-linejoin="miter" d="M 22.480992 58.71339 C 22.583365 58.792872 22.884538 58.828186 23.378042 58.83259 C 23.876784 58.832984 24.25246 58.661739 24.514317 58.320086 C 24.775559 57.983056 24.906913 57.384075 24.903754 56.522529 L 24.903731 55.779039 C 24.904842 54.814536 24.793875 54.126888 24.572058 53.706848 C 24.349627 53.291431 23.986729 53.083219 23.478738 53.081596 C 22.970134 53.084597 22.624305 53.137461 22.441253 53.240189 C 22.466279 53.370566 22.479016 53.593422 22.48008 53.904134 Z M 22.481815 43.975524 C 22.584802 44.050382 22.88536 44.09032 23.379479 44.090099 C 23.873597 44.089879 24.252345 43.895515 24.511098 43.506393 C 24.77509 43.113261 24.902111 42.476059 24.902639 41.586769 L 24.905003 41.356508 C 24.903041 40.415125 24.79424 39.746588 24.570581 39.340419 C 24.351545 38.934865 23.987417 38.7359 23.479427 38.734277 C 22.970822 38.737279 22.625608 38.785519 22.441941 38.892871 C 22.466967 39.023248 22.480319 39.24148 22.480768 39.556816 Z M 1.250808 28.919773 C 1.250233 28.322084 1.744974 27.644338 2.735031 26.886535 C 4.823307 25.300602 8.498282 24.06197 13.763964 23.175879 C 16.500683 22.730167 19.508759 22.508737 22.793429 22.50758 C 30.613637 22.511489 36.530171 24.022338 40.542419 27.044751 C 44.061619 29.705195 45.82357 33.195605 45.822419 37.524615 C 45.821883 39.086807 45.547919 40.617371 45.000526 42.116308 C 44.453133 43.615246 43.672541 44.744391 42.65474 45.498507 C 41.27564 44.792931 39.943552 44.441816 38.668338 44.441768 C 38.066025 44.441729 37.612647 44.560298 37.298958 44.796246 C 36.985883 45.02757 36.829795 45.458568 36.831307 46.084615 C 40.659794 46.240421 43.643308 47.620341 45.781234 50.228999 C 47.687253 52.599795 48.63704 55.544663 48.63522 59.064219 C 48.635802 64.513395 46.354389 68.473526 41.794992 70.949852 C 37.519728 73.271004 31.083757 74.429799 22.481839 74.430246 C 16.458709 74.42985 12.041458 74.242866 9.226077 73.864055 C 6.410695 73.485243 4.378647 72.594086 3.125923 71.185343 C 1.877822 69.777215 1.248664 67.641966 1.253549 64.772192 Z M 1.250808 28.919773 " stroke="#ffffff" stroke-width="12.412168" stroke-opacity="1" stroke-miterlimit="4"/></g><g fill="#ff1919" fill-opacity="1"><g transform="translate(60.957753, 143.689142)"><g><path d="M 16.96875 -15.171875 C 17.0625 -15.117188 17.316406 -15.117188 17.734375 -15.171875 C 18.148438 -15.222656 18.445312 -15.398438 18.625 -15.703125 C 18.800781 -16.015625 18.84375 -16.535156 18.75 -17.265625 L 18.65625 -17.859375 C 18.550781 -18.671875 18.382812 -19.234375 18.15625 -19.546875 C 17.925781 -19.867188 17.597656 -20 17.171875 -19.9375 C 16.742188 -19.882812 16.46875 -19.804688 16.34375 -19.703125 C 16.375 -19.597656 16.40625 -19.421875 16.4375 -19.171875 Z M 15.34375 -27.40625 C 15.4375 -27.351562 15.691406 -27.351562 16.109375 -27.40625 C 16.523438 -27.457031 16.816406 -27.660156 16.984375 -28.015625 C 17.160156 -28.367188 17.195312 -28.914062 17.09375 -29.65625 L 17.078125 -29.859375 C 16.972656 -30.628906 16.804688 -31.171875 16.578125 -31.484375 C 16.347656 -31.796875 16.019531 -31.921875 15.59375 -31.859375 C 15.164062 -31.804688 14.890625 -31.726562 14.765625 -31.625 C 14.796875 -31.519531 14.828125 -31.335938 14.859375 -31.078125 Z M -3.9375 -37.5625 C -4.007812 -38.050781 -3.671875 -38.664062 -2.921875 -39.40625 C -1.367188 -40.957031 1.546875 -42.390625 5.828125 -43.703125 C 8.054688 -44.367188 10.53125 -44.882812 13.25 -45.25 C 19.738281 -46.113281 24.816406 -45.507812 28.484375 -43.4375 C 31.703125 -41.625 33.546875 -38.921875 34.015625 -35.328125 C 34.191406 -34.023438 34.132812 -32.722656 33.84375 -31.421875 C 33.550781 -30.117188 33.023438 -29.097656 32.265625 -28.359375 C 31.035156 -28.785156 29.890625 -28.929688 28.828125 -28.796875 C 28.328125 -28.734375 27.960938 -28.585938 27.734375 -28.359375 C 27.503906 -28.128906 27.425781 -27.753906 27.5 -27.234375 C 30.695312 -27.523438 33.320312 -26.707031 35.375 -24.78125 C 37.207031 -23.019531 38.320312 -20.675781 38.71875 -17.75 C 39.3125 -13.226562 37.859375 -9.691406 34.359375 -7.140625 C 31.054688 -4.742188 25.835938 -3.070312 18.703125 -2.125 C 13.710938 -1.457031 10.023438 -1.125 7.640625 -1.125 C 5.265625 -1.132812 3.476562 -1.65625 2.28125 -2.6875 C 1.082031 -3.71875 0.328125 -5.421875 0.015625 -7.796875 Z M -3.9375 -37.5625 "/></g></g></g><g clip-path="url(#40ded7d351)"><path stroke-linecap="butt" transform="matrix(0.764272, 0, 0, 0.764272, 179.948105, 69.455532)" fill="none" stroke-linejoin="miter" d="M 73.657103 38.677436 C 72.767777 34.767467 71.183345 30.43839 68.893585 25.700427 L 75.594199 23.594665 C 77.653961 27.724411 79.269059 32.022822 80.439495 36.489898 Z M 67.135377 40.762753 C 70.815348 49.630462 73.825769 57.082403 76.166639 63.118578 C 78.512621 69.13942 81.052823 76.254031 83.792357 84.4573 L 61.778974 93.672561 C 60.501206 89.369039 59.770323 86.961725 59.596547 86.46084 C 56.310128 75.354482 53.437706 66.164777 50.969059 58.891722 C 48.515745 51.598224 45.311103 43.297844 41.344912 33.975251 L 62.18786 33.137035 C 61.916973 32.360152 61.221867 30.801276 60.107654 28.460405 L 66.808268 26.354644 C 69.031584 30.765498 70.641571 35.06902 71.653563 39.249876 Z M -3.433182 81.370213 C 3.144766 75.441371 7.944062 68.771423 10.954483 61.36037 C 13.980237 53.939095 15.544225 45.168497 15.656668 35.058798 L 38.176048 34.138805 C 37.618941 46.482042 35.732956 57.317513 32.512981 66.634995 C 29.31345 75.952478 24.417044 85.07574 17.818652 93.99967 C 14.08757 91.096581 10.683596 88.699489 7.60162 86.808393 C 4.534978 84.896852 0.860118 83.087533 -3.433182 81.370213 Z M -3.433182 81.370213 " stroke="#ffffff" stroke-width="12.975949" stroke-opacity="1" stroke-miterlimit="4"/></g><g fill="#ff1919" fill-opacity="1"><g transform="translate(179.948105, 141.297127)"><g><path d="M 56.3125 -42.296875 C 55.625 -45.273438 54.40625 -48.582031 52.65625 -52.21875 L 57.78125 -53.8125 C 59.351562 -50.65625 60.585938 -47.367188 61.484375 -43.953125 Z M 51.3125 -40.6875 C 54.125 -33.90625 56.425781 -28.210938 58.21875 -23.609375 C 60.007812 -19.003906 61.953125 -13.566406 64.046875 -7.296875 L 47.21875 -0.25 C 46.238281 -3.539062 45.6875 -5.378906 45.5625 -5.765625 C 43.039062 -14.242188 40.84375 -21.265625 38.96875 -26.828125 C 37.09375 -32.398438 34.640625 -38.75 31.609375 -45.875 L 47.546875 -46.515625 C 47.328125 -47.109375 46.789062 -48.300781 45.9375 -50.09375 L 51.0625 -51.703125 C 52.769531 -48.328125 54.003906 -45.039062 54.765625 -41.84375 Z M -2.625 -9.65625 C 2.40625 -14.175781 6.070312 -19.273438 8.375 -24.953125 C 10.6875 -30.628906 11.882812 -37.328125 11.96875 -45.046875 L 29.171875 -45.75 C 28.742188 -36.320312 27.300781 -28.046875 24.84375 -20.921875 C 22.394531 -13.796875 18.65625 -6.820312 13.625 0 C 10.769531 -2.21875 8.164062 -4.050781 5.8125 -5.5 C 3.46875 -6.945312 0.65625 -8.332031 -2.625 -9.65625 Z M -2.625 -9.65625 "/></g></g></g><g clip-path="url(#f24fc8b04b)"><path stroke-linecap="butt" transform="matrix(0.764272, 0, 0, 0.764272, 303.025315, 60.462288)" fill="none" stroke-linejoin="miter" d="M 84.657325 60.768869 C 82.684452 63.907066 81.171575 66.999264 80.123805 70.050574 C 79.070924 73.101883 77.910711 77.098741 76.632944 82.036035 C 64.667926 77.737625 50.607369 73.960543 34.441052 70.709902 L 34.441052 98.427241 L 9.8568 98.427241 C 10.265685 88.659984 10.516128 78.897838 10.603016 69.135692 C 10.684793 59.373546 10.730793 47.168308 10.730793 32.519979 L 34.441052 32.519979 L 34.441052 50.572282 C 42.11788 51.497386 50.505148 52.887597 59.602855 54.748027 C 68.700561 56.603346 77.052051 58.611997 84.657325 60.768869 Z M 84.657325 60.768869 " stroke="#ffffff" stroke-width="13.515551" stroke-opacity="1" stroke-miterlimit="4"/></g><g fill="#ff1919" fill-opacity="1"><g transform="translate(303.025315, 135.360972)"><g><path d="M 64.703125 -28.453125 C 63.191406 -26.054688 62.035156 -23.691406 61.234375 -21.359375 C 60.441406 -19.023438 59.554688 -15.96875 58.578125 -12.1875 C 49.421875 -15.476562 38.671875 -18.367188 26.328125 -20.859375 L 26.328125 0.328125 L 7.53125 0.328125 C 7.84375 -7.128906 8.03125 -14.585938 8.09375 -22.046875 C 8.164062 -29.515625 8.203125 -38.847656 8.203125 -50.046875 L 26.328125 -50.046875 L 26.328125 -36.25 C 32.191406 -35.539062 38.597656 -34.472656 45.546875 -33.046875 C 52.503906 -31.628906 58.890625 -30.097656 64.703125 -28.453125 Z M 64.703125 -28.453125 "/></g></g></g><path stroke-linecap="butt" transform="matrix(0.764272, 0, 0, 0.764272, 250.983199, 76.603277)" fill="none" stroke-linejoin="miter" d="M 69.455884 32.187283 C 66.292131 36.378361 63.159044 39.833445 60.061735 42.557646 C 56.974648 45.266514 53.289566 47.714717 49.011599 49.892033 L 49.011599 77.726926 L 29.707084 77.726926 L 29.707084 55.969097 C 23.24669 57.12931 14.997421 58.059525 4.954166 58.764852 C 4.581058 55.130881 4.146617 51.992683 3.661065 49.350259 C 3.170403 46.692503 2.327076 43.922302 1.125974 41.039658 C 8.465472 41.085658 14.94631 40.855659 20.563377 40.344552 C 26.195778 39.833445 30.821297 38.90323 34.439936 37.548796 C 41.927655 34.712152 47.738943 30.439296 51.873799 24.73023 Z M 69.455884 32.187283 " stroke="#ffffff" stroke-width="10.809033" stroke-opacity="1" stroke-miterlimit="4"/><g fill="#ff1919" fill-opacity="1"><g transform="translate(250.983199, 136.216515)"><g><path d="M 53.078125 -35.015625 C 50.660156 -31.816406 48.269531 -29.175781 45.90625 -27.09375 C 43.550781 -25.019531 40.738281 -23.148438 37.46875 -21.484375 L 37.46875 -0.21875 L 22.703125 -0.21875 L 22.703125 -16.84375 C 17.765625 -15.957031 11.457031 -15.242188 3.78125 -14.703125 C 3.5 -17.472656 3.171875 -19.867188 2.796875 -21.890625 C 2.421875 -23.921875 1.773438 -26.039062 0.859375 -28.25 C 6.472656 -28.207031 11.425781 -28.378906 15.71875 -28.765625 C 20.019531 -29.160156 23.554688 -29.875 26.328125 -30.90625 C 32.046875 -33.070312 36.488281 -36.34375 39.65625 -40.71875 Z M 53.078125 -35.015625 "/></g></g></g><g clip-path="url(#2068cc6c87)"><g clip-path="url(#ff29a2ef05)"><g clip-path="url(#1039effef5)"><path fill="#ff1919" d="M 172.425781 89.691406 L 164.167969 87.03125 C 163.613281 86.851562 163.105469 86.941406 162.644531 87.296875 L 155.769531 92.589844 C 155.519531 92.78125 155.238281 92.894531 154.921875 92.925781 C 154.605469 92.957031 154.308594 92.902344 154.023438 92.765625 C 153.738281 92.625 153.511719 92.421875 153.34375 92.152344 C 153.175781 91.886719 153.09375 91.59375 153.09375 91.277344 L 153.074219 82.597656 C 153.070312 82.015625 152.832031 81.558594 152.347656 81.230469 L 145.191406 76.328125 C 144.929688 76.152344 144.734375 75.917969 144.605469 75.625 C 144.480469 75.335938 144.4375 75.035156 144.484375 74.722656 C 144.527344 74.410156 144.652344 74.132812 144.855469 73.886719 C 145.058594 73.644531 145.3125 73.476562 145.613281 73.378906 L 153.855469 70.675781 C 154.410156 70.496094 154.769531 70.125 154.933594 69.566406 L 157.382812 61.242188 C 157.472656 60.9375 157.636719 60.683594 157.871094 60.472656 C 158.109375 60.261719 158.382812 60.128906 158.695312 60.074219 C 159.007812 60.019531 159.308594 60.050781 159.601562 60.171875 C 159.894531 60.289062 160.136719 60.476562 160.324219 60.730469 L 165.4375 67.738281 C 165.78125 68.210938 166.246094 68.4375 166.828125 68.421875 L 175.5 68.179688 C 175.816406 68.167969 176.113281 68.246094 176.386719 68.402344 C 176.660156 68.5625 176.871094 68.785156 177.019531 69.0625 C 177.164062 69.34375 177.226562 69.640625 177.207031 69.957031 C 177.183594 70.273438 177.082031 70.558594 176.894531 70.816406 L 171.8125 77.847656 C 171.472656 78.316406 171.398438 78.828125 171.59375 79.378906 L 174.503906 87.550781 C 174.609375 87.851562 174.628906 88.152344 174.5625 88.460938 C 174.496094 88.773438 174.351562 89.039062 174.128906 89.265625 C 173.910156 89.496094 173.644531 89.644531 173.339844 89.722656 C 173.03125 89.800781 172.726562 89.789062 172.425781 89.691406 Z M 172.425781 89.691406 " fill-opacity="1" fill-rule="nonzero"/></g></g></g><g clip-path="url(#a2a8fe3f91)"><path stroke-linecap="butt" transform="matrix(0.729754, 0, 0, 0.729754, 100.853027, 83.317882)" fill="none" stroke-linejoin="miter" d="M 17.282285 62.112233 C 18.01027 62.112233 18.374263 61.71077 18.374263 60.902493 C 12.614616 57.069865 8.214589 52.364727 5.179534 46.787076 C 2.144478 41.209426 0.442278 35.059023 0.0782853 28.335867 C 1.250555 26.590844 3.006284 25.247283 5.334766 24.310538 C 7.6686 23.368439 10.072021 22.902743 12.550382 22.902743 C 15.810257 22.902743 18.609787 23.53973 20.954327 24.813704 C 22.41565 28.753388 23.614685 32.505722 24.55143 36.076061 C 23.277456 41.70724 22.635116 44.522829 22.635116 44.522829 C 22.533413 44.913586 22.479884 45.277578 22.479884 45.614806 C 22.479884 46.503376 22.950934 46.947661 23.887679 46.947661 C 24.203496 45.952035 24.931481 42.959802 26.076987 37.954905 C 26.36604 36.675578 26.746091 34.898438 27.233199 32.618132 C 27.714953 30.337826 28.330529 27.645352 29.085278 24.540709 C 31.483347 23.395204 34.223996 22.822451 37.296522 22.822451 C 41.027445 22.822451 43.998266 23.727079 46.214339 25.541689 C 48.430411 27.350946 49.533094 29.963128 49.533094 33.378234 C 49.533094 38.383131 48.130652 43.259561 45.315063 48.002169 C 43.098991 51.754504 40.165639 55.260608 36.515008 58.51513 L 36.515008 71.420806 C 34.352464 72.748308 32.409387 73.626173 30.691128 74.059752 C 28.972869 74.487979 27.158259 74.702092 25.258004 74.702092 C 21.660901 74.702092 18.829253 74.027635 16.773766 72.673369 C 14.712926 71.31375 13.685183 69.295732 13.685183 66.608611 L 13.685183 59.730223 C 14.150879 60.201272 14.750396 60.715144 15.483734 61.271838 C 16.211719 61.833885 16.811236 62.112233 17.282285 62.112233 Z M 17.282285 62.112233 " stroke="#ffffff" stroke-width="12.412168" stroke-opacity="1" stroke-miterlimit="4"/></g><g fill="#ff1919" fill-opacity="1"><g transform="translate(100.853027, 137.319677)"><g><path d="M 12.609375 -8.671875 C 13.140625 -8.671875 13.40625 -8.96875 13.40625 -9.5625 C 9.207031 -12.351562 6 -15.785156 3.78125 -19.859375 C 1.5625 -23.929688 0.320312 -28.421875 0.0625 -33.328125 C 0.914062 -34.597656 2.191406 -35.578125 3.890625 -36.265625 C 5.597656 -36.953125 7.351562 -37.296875 9.15625 -37.296875 C 11.53125 -37.296875 13.578125 -36.828125 15.296875 -35.890625 C 16.359375 -33.023438 17.234375 -30.285156 17.921875 -27.671875 C 16.984375 -23.566406 16.515625 -21.515625 16.515625 -21.515625 C 16.441406 -21.234375 16.40625 -20.96875 16.40625 -20.71875 C 16.40625 -20.070312 16.75 -19.75 17.4375 -19.75 C 17.664062 -20.46875 18.195312 -22.65625 19.03125 -26.3125 C 19.238281 -27.238281 19.519531 -28.535156 19.875 -30.203125 C 20.226562 -31.867188 20.679688 -33.832031 21.234375 -36.09375 C 22.984375 -36.925781 24.976562 -37.34375 27.21875 -37.34375 C 29.9375 -37.34375 32.101562 -36.679688 33.71875 -35.359375 C 35.34375 -34.046875 36.15625 -32.140625 36.15625 -29.640625 C 36.15625 -25.992188 35.128906 -22.4375 33.078125 -18.96875 C 31.453125 -16.226562 29.3125 -13.671875 26.65625 -11.296875 L 26.65625 -1.890625 C 25.070312 -0.910156 23.648438 -0.265625 22.390625 0.046875 C 21.140625 0.359375 19.820312 0.515625 18.4375 0.515625 C 15.8125 0.515625 13.742188 0.0195312 12.234375 -0.96875 C 10.734375 -1.957031 9.984375 -3.429688 9.984375 -5.390625 L 9.984375 -10.421875 C 10.328125 -10.078125 10.765625 -9.695312 11.296875 -9.28125 C 11.828125 -8.875 12.265625 -8.671875 12.609375 -8.671875 Z M 12.609375 -8.671875 "/></g></g></g><g clip-path="url(#9857d0a7ac)"><path stroke-linecap="butt" transform="matrix(0.739392, 0, 0, 0.739392, 140.17481, 82.315576)" fill="none" stroke-linejoin="miter" d="M 20.515414 23.563544 L 43.074056 23.563544 C 43.829533 24.815628 44.389536 26.178656 44.754067 27.652628 C 45.123881 29.121318 45.303505 30.447364 45.303505 31.620202 C 45.303505 34.251163 44.791048 36.232309 43.760853 37.563638 C 42.730657 38.889685 41.288383 39.55535 39.439314 39.55535 L 23.685247 39.55535 C 22.718448 39.55535 22.23769 39.93573 22.23769 40.691206 L 22.23769 41.002907 C 22.23769 41.161398 22.264105 41.261776 22.316935 41.314607 L 41.003098 41.314607 C 41.47329 42.122914 41.874802 43.137261 42.212918 44.362929 C 42.529901 45.694259 42.68311 46.877663 42.68311 47.923708 C 42.68311 51.024861 42.11254 53.449783 40.966117 55.193191 L 32.481532 55.193191 C 28.519241 55.193191 25.83545 55.346399 24.424874 55.64225 C 23.019582 55.943384 22.147878 56.196971 21.804479 56.408293 C 21.466364 56.640747 21.297306 56.941881 21.297306 57.306412 C 21.297306 57.670943 21.482213 57.956228 21.846744 58.16755 C 23.199206 57.723774 24.620347 57.412073 26.104885 57.227166 C 28.059615 57.047543 30.188686 56.952448 32.481532 56.952448 L 43.465002 56.952448 C 45.055201 59.197746 45.852942 61.892103 45.852942 65.046087 C 45.852942 66.821193 45.631054 68.51177 45.187277 70.128385 C 44.743501 71.745 44.077836 73.049914 43.190283 74.037845 L 13.911596 74.037845 C 10.678367 74.037845 8.084387 73.255953 6.129657 71.692169 C 3.99002 70.022724 2.922843 67.57667 2.922843 64.343441 L 2.922843 27.161304 C 2.922843 25.909221 4.354551 25.000535 7.223249 24.424682 C 10.091948 23.854112 14.519147 23.563544 20.515414 23.563544 Z M 20.515414 23.563544 " stroke="#ffffff" stroke-width="12.412168" stroke-opacity="1" stroke-miterlimit="4"/></g><g fill="#ff1919" fill-opacity="1"><g transform="translate(141.410981, 137.030611)"><g><path d="M 13.9375 -37.296875 L 30.609375 -37.296875 C 31.171875 -36.367188 31.585938 -35.359375 31.859375 -34.265625 C 32.128906 -33.179688 32.265625 -32.207031 32.265625 -31.34375 C 32.265625 -29.394531 31.882812 -27.925781 31.125 -26.9375 C 30.363281 -25.957031 29.296875 -25.46875 27.921875 -25.46875 L 16.28125 -25.46875 C 15.5625 -25.46875 15.203125 -25.1875 15.203125 -24.625 L 15.203125 -24.390625 C 15.203125 -24.273438 15.222656 -24.203125 15.265625 -24.171875 L 29.078125 -24.171875 C 29.429688 -23.566406 29.734375 -22.8125 29.984375 -21.90625 C 30.210938 -20.925781 30.328125 -20.050781 30.328125 -19.28125 C 30.328125 -16.988281 29.898438 -15.195312 29.046875 -13.90625 L 22.78125 -13.90625 C 19.851562 -13.90625 17.867188 -13.789062 16.828125 -13.5625 C 15.785156 -13.34375 15.140625 -13.160156 14.890625 -13.015625 C 14.640625 -12.835938 14.515625 -12.613281 14.515625 -12.34375 C 14.515625 -12.070312 14.648438 -11.859375 14.921875 -11.703125 C 15.921875 -12.035156 16.96875 -12.269531 18.0625 -12.40625 C 19.507812 -12.539062 21.082031 -12.609375 22.78125 -12.609375 L 30.90625 -12.609375 C 32.082031 -10.953125 32.671875 -8.957031 32.671875 -6.625 C 32.671875 -5.3125 32.503906 -4.054688 32.171875 -2.859375 C 31.847656 -1.660156 31.359375 -0.695312 30.703125 0.03125 L 9.046875 0.03125 C 6.660156 0.03125 4.742188 -0.546875 3.296875 -1.703125 C 1.710938 -2.941406 0.921875 -4.753906 0.921875 -7.140625 L 0.921875 -34.625 C 0.921875 -35.550781 1.976562 -36.226562 4.09375 -36.65625 C 6.21875 -37.082031 9.5 -37.296875 13.9375 -37.296875 Z M 13.9375 -37.296875 "/></g></g></g></svg>